# xmcd
#
# Track frame offsets:
# 150
# 17775
# 32627
# 52051
# 64857
# 82143
# 97829
# 124042
# 146521
# 162571
# 178406
# 192856
# 208631
# 222270
#
# Disc length: 3143 seconds
#
#
# Revision: 4
# Processed by: cddbd v1.5.2PL0 Copyright (c) Steve Scherf et al.
# Submitted via: FreeRIP 2.951 
#
DISCID=d00c450e
DTITLE=Various Artist - John Williamson's Australia
DYEAR=1900
DGENRE=Country
TTITLE0=John Willianson - This Is Australia Calling
TTITLE1=John Willianson - Sail The Nullarbor
TTITLE2=John Willianson - Raining On The Rock
TTITLE3=John Willianson - Shelter
TTITLE4=John Willianson - Cootamundra Wattle
TTITLE5=John Willianson - The Boomerang Cafe
TTITLE6=John Willianson - And The Band Played Waltzing Matilda
TTITLE7=John Willianson - I Was Only 19
TTITLE8=John Williamson - I Can't Feel These Chains Any Longer
TTITLE9=John Willianson - True Blue
TTITLE10=John Willianson - Sir Don
TTITLE11=John Willianson - Goodbye Blinky Bill
TTITLE12=John Willianson - Rip Rip Woodchip
TTITLE13=John Willianson - Waltzing Matilda
EXTD=Copyright (C) Reader's Digest (Australia)
EXTT0=
EXTT1=
EXTT2=
EXTT3=
EXTT4=
EXTT5=
EXTT6=
EXTT7=
EXTT8=
EXTT9=
EXTT10=
EXTT11=
EXTT12=
EXTT13=
PLAYORDER=
